<svg width="99" height="36" viewBox="0 0 99 36" fill="none" xmlns="http://www.w3.org/2000/svg">
<g clip-path="url(#clip0_71_8520)">
<path d="M9.20646 28.102C9.28328 28.9442 9.04255 29.7846 8.53131 30.4592C8.2163 30.74 7.84655 30.9529 7.44522 31.0846C7.04388 31.2163 6.61961 31.2639 6.19898 31.2245H3.13013V36H7.97892C8.90146 36.0556 9.82575 35.9243 10.696 35.6138C11.5663 35.3034 12.3645 34.8204 13.0425 34.1939C14.1466 33.0513 14.7627 31.5257 14.7611 29.9388C14.7926 29.6744 14.7926 29.4072 14.7611 29.1428V10.2857H9.20646V28.102Z" fill="url(#paint0_linear_71_8520)"/>
<path d="M12.0606 0C11.2108 0 10.3801 0.251353 9.67361 0.722273C8.96707 1.19319 8.41639 1.86253 8.09121 2.64564C7.76602 3.42875 7.68094 4.29047 7.84672 5.12182C8.01249 5.95316 8.42169 6.7168 9.02255 7.31617C9.62341 7.91554 10.389 8.32371 11.2224 8.48908C12.0558 8.65445 12.9197 8.56957 13.7047 8.2452C14.4898 7.92082 15.1608 7.37151 15.6329 6.66673C16.105 5.96195 16.357 5.13335 16.357 4.28571C16.357 3.14907 15.9043 2.05898 15.0986 1.25526C14.2928 0.451529 13.2 0 12.0606 0V0Z" fill="url(#paint1_linear_71_8520)"/>
<path fill-rule="evenodd" clip-rule="evenodd" d="M96.6688 4.65306L94.5206 0.0612183L93.2317 1.34693L91.4211 3.33673L91.2369 3.55101L90.8687 3.94897L86.6643 8.5102H89.7332L82.859 29.2347L76.7212 10.2245H70.5835L78.2864 32.8469C78.6085 33.7426 79.2 34.5172 79.9799 35.065C80.7598 35.6129 81.6902 35.9074 82.6441 35.9082C83.6002 35.9164 84.5347 35.6255 85.3164 35.0764C86.0981 34.5273 86.6875 33.7476 87.0019 32.8469L95.1651 8.54081H98.5101L96.6688 4.65306ZM0.325832 13.8184C0.589494 13.0767 1.00053 12.3958 1.53432 11.8163C2.1142 11.2824 2.79671 10.8714 3.54049 10.6083C4.28427 10.3452 5.07385 10.2355 5.86141 10.2857H7.24239V15H6.75138C6.0359 14.9274 5.32027 15.1361 4.75662 15.5816C4.51559 15.8447 4.33129 16.1543 4.21515 16.4913C4.09901 16.8283 4.05351 17.1855 4.08147 17.5408V21.1531H-0.000102881V16.1326C-0.0486893 15.3472 0.0621697 14.5601 0.325832 13.8184ZM17.6151 12.4286H16.3569V16.3775H17.6151V18.5204H22.6787V10.2857H17.6151V12.4286ZM17.6151 15.8265H16.9707V12.9796H17.6151V15.8265ZM16.8479 24.4898V28.4694C16.8626 28.7243 16.8626 28.9798 16.8479 29.2347C17.2645 29.29 17.6576 29.4595 17.9834 29.7245C18.4352 30.2852 18.6548 30.9972 18.5971 31.7143V36H22.6787V30.2755C22.7232 29.4879 22.6075 28.6995 22.3385 27.9577C22.0696 27.2159 21.6529 26.5361 21.1136 25.9592C20.5421 25.4348 19.8683 25.0337 19.1343 24.7809C18.4003 24.5281 17.622 24.429 16.8479 24.4898ZM57.8171 9.79591C60.1387 9.74831 62.4297 10.3302 64.4458 11.4796C66.3561 12.6029 67.9256 14.2215 68.9877 16.1633C70.0754 18.2289 70.6242 20.5344 70.5835 22.8673C70.6242 25.2002 70.0754 27.5058 68.9877 29.5714C67.9256 31.5132 66.3561 33.1317 64.4458 34.2551C62.4603 35.3697 60.2182 35.9499 57.9399 35.9388C55.621 35.9627 53.3361 35.3824 51.3111 34.2551C50.0289 33.5327 48.9108 32.5529 48.0275 31.3775C47.1138 32.5476 45.9769 33.5255 44.6824 34.2551C42.6538 35.359 40.3799 35.9374 38.069 35.9374C35.7582 35.9374 33.4843 35.359 31.4556 34.2551C29.5346 33.1455 27.9617 31.5235 26.9137 29.5714C25.8167 27.5081 25.2574 25.2027 25.2873 22.8673C25.2574 20.532 25.8167 18.2266 26.9137 16.1633C27.9282 14.2272 29.4571 12.6069 31.3329 11.4796C33.349 10.3302 35.64 9.74831 37.9616 9.79591C40.273 9.75233 42.5531 10.3342 44.5597 11.4796C45.8542 12.2091 46.991 13.1871 47.9047 14.3571C48.788 13.1818 49.9061 12.202 51.1884 11.4796C53.2073 10.3373 55.4964 9.7559 57.8171 9.79591ZM41.7977 30.2449C42.9002 29.48 43.7623 28.4183 44.2835 27.1837C44.893 25.8271 45.1968 24.3537 45.1734 22.8673C45.1934 21.3714 44.8899 19.8887 44.2835 18.5204C43.7667 17.2831 42.9038 16.2203 41.7977 15.4592C40.6818 14.7408 39.3818 14.3588 38.0537 14.3588C36.7256 14.3588 35.4256 14.7408 34.3097 15.4592C33.2036 16.2203 32.3406 17.2831 31.8239 18.5204C31.2175 19.8887 30.914 21.3714 30.9339 22.8673C30.9106 24.3537 31.2144 25.8271 31.8239 27.1837C32.3451 28.4183 33.2071 29.48 34.3097 30.2449C35.4322 30.9455 36.7296 31.317 38.0537 31.317C39.3778 31.317 40.6752 30.9455 41.7977 30.2449ZM61.6532 30.2449C62.773 29.4908 63.6476 28.4268 64.1696 27.1837C64.7792 25.8271 65.083 24.3537 65.0596 22.8673C65.0796 21.3714 64.776 19.8887 64.1696 18.5204C63.6523 17.2744 62.7767 16.2092 61.6532 15.4592C60.5597 14.717 59.2622 14.3319 57.9399 14.3571C56.6079 14.3316 55.3005 14.7164 54.1959 15.4592C53.0888 16.2271 52.2175 17.287 51.6794 18.5204C51.1105 19.7908 50.8277 21.1701 50.8508 22.5612V23.1735C50.8209 24.5554 51.1042 25.9262 51.6794 27.1837C52.2216 28.4145 53.092 29.4734 54.1959 30.2449C55.3032 30.9787 56.6109 31.3529 57.9399 31.3163C59.2591 31.3526 60.557 30.9781 61.6532 30.2449ZM60.0574 18.0918C59.4206 17.7026 58.6866 17.501 57.9399 17.5102H57.4795C57.6724 17.921 57.7569 18.3741 57.725 18.8265C57.7413 19.3009 57.6467 19.7725 57.4488 20.2041C57.3028 20.5526 57.0574 20.8506 56.743 21.0612C56.442 21.2583 56.0903 21.3646 55.7303 21.3673C55.3655 21.3593 55.0079 21.2649 54.6869 21.0918C54.4289 20.9177 54.2266 20.6733 54.1038 20.3877C53.8248 21.1842 53.6898 22.0238 53.7048 22.8673C53.6676 23.9184 53.8668 24.9644 54.2879 25.9286C54.6201 26.6527 55.139 27.276 55.7917 27.7347C56.4386 28.1264 57.1832 28.328 57.9399 28.3163C58.7005 28.3257 59.4472 28.1129 60.0881 27.7041C60.7292 27.2541 61.2379 26.641 61.5611 25.9286C61.9928 24.9668 62.2025 23.9207 62.1749 22.8673C62.1984 21.8143 61.9888 20.7691 61.5611 19.8061C61.2144 19.1163 60.6968 18.5262 60.0574 18.0918ZM38.0844 17.5102C38.8213 17.5017 39.5454 17.7035 40.1712 18.0918C40.7916 18.4834 41.3075 19.0191 41.6749 19.6531C42.1287 20.6085 42.3496 21.6575 42.3194 22.7143C42.3531 23.7714 42.1321 24.8212 41.6749 25.7755C41.3612 26.4938 40.8506 27.1092 40.2019 27.551C39.5896 28.0134 38.8515 28.2802 38.0844 28.3163C37.3277 28.328 36.5831 28.1264 35.9362 27.7347C35.2751 27.2852 34.754 26.6594 34.4324 25.9286C33.9858 24.9717 33.7754 23.922 33.8187 22.8673C33.8187 22.0249 33.9534 21.1879 34.2176 20.3877C34.3614 20.669 34.5721 20.9108 34.8314 21.0918C35.1409 21.2658 35.4889 21.3605 35.8441 21.3673C36.2047 21.3682 36.5574 21.2616 36.8568 21.0612C37.1858 20.8671 37.4357 20.5636 37.5627 20.2041C37.7711 19.775 37.8762 19.3033 37.8696 18.8265C37.8861 18.3751 37.8023 17.9255 37.624 17.5102H38.0844Z" fill="url(#paint2_linear_71_8520)"/>
</g>
<defs>
<linearGradient id="paint0_linear_71_8520" x1="24.1825" y1="62.5102" x2="-6.22041" y2="-16.8262" gradientUnits="userSpaceOnUse">
<stop stop-color="#FF4242"/>
<stop offset="1" stop-color="#FD00CB"/>
</linearGradient>
<linearGradient id="paint1_linear_71_8520" x1="100.652" y1="165.429" x2="15.4385" y2="-56.7136" gradientUnits="userSpaceOnUse">
<stop stop-color="#FF4242"/>
<stop offset="1" stop-color="#FD00CB"/>
</linearGradient>
<linearGradient id="paint2_linear_71_8520" x1="189.471" y1="69" x2="-3.51589" y2="137.61" gradientUnits="userSpaceOnUse">
<stop stop-color="#16F3FD"/>
<stop offset="1" stop-color="#3B5CFF"/>
</linearGradient>
<clipPath id="clip0_71_8520">
<rect width="98.5102" height="36" fill="white"/>
</clipPath>
</defs>
</svg>
