<svg width="25" height="25" viewBox="0 0 25 25" fill="none" xmlns="http://www.w3.org/2000/svg">
<path d="M21.59 7.02689C20.74 6.08689 19.32 5.61689 17.26 5.61689H17.02V5.57689C17.02 3.89689 17.02 1.81689 13.26 1.81689H11.74C7.98004 1.81689 7.98004 3.90689 7.98004 5.57689V5.62689H7.74004C5.67004 5.62689 4.26004 6.09689 3.41004 7.03689C2.42004 8.13689 2.45004 9.61689 2.55004 10.6269L2.56004 10.6969L2.63749 11.5102C2.65176 11.66 2.73242 11.7952 2.85831 11.8776C3.09812 12.0345 3.49946 12.2932 3.74004 12.4269C3.88004 12.5169 4.03004 12.5969 4.18004 12.6769C5.89004 13.6169 7.77004 14.2469 9.68004 14.5569C9.77004 15.4969 10.18 16.5969 12.37 16.5969C14.56 16.5969 14.99 15.5069 15.06 14.5369C17.1 14.2069 19.07 13.4969 20.85 12.4569C20.91 12.4269 20.95 12.3969 21 12.3669C21.3968 12.1427 21.8083 11.8664 22.1835 11.5957C22.2965 11.5142 22.3688 11.3881 22.3842 11.2496L22.4 11.1069L22.45 10.6369C22.46 10.5769 22.46 10.5269 22.47 10.4569C22.55 9.44689 22.53 8.06689 21.59 7.02689ZM13.59 13.8769C13.59 14.9369 13.59 15.0969 12.36 15.0969C11.13 15.0969 11.13 14.9069 11.13 13.8869V12.6269H13.59V13.8769ZM9.41004 5.61689V5.57689C9.41004 3.87689 9.41004 3.24689 11.74 3.24689H13.26C15.59 3.24689 15.59 3.88689 15.59 5.57689V5.62689H9.41004V5.61689Z" fill="#A9A9A9"/>
<path d="M21.3734 13.7813C21.727 13.613 22.1343 13.8933 22.0989 14.2833L21.74 18.2371C21.53 20.2371 20.71 22.2771 16.31 22.2771H8.68997C4.28997 22.2771 3.46997 20.2371 3.25997 18.2471L2.91925 14.4993C2.88421 14.1138 3.28217 13.8338 3.63481 13.9934C4.77422 14.5089 6.87736 15.4235 8.17653 15.7638C8.34084 15.8068 8.47374 15.9244 8.54568 16.0782C9.15265 17.3764 10.4691 18.0671 12.37 18.0671C14.2521 18.0671 15.5851 17.3498 16.1941 16.0485C16.2662 15.8945 16.3992 15.7769 16.5636 15.7337C17.9431 15.3707 20.1817 14.3483 21.3734 13.7813Z" fill="#A9A9A9"/>
</svg>
