<svg width="24" height="24" viewBox="0 0 24 24" fill="none" xmlns="http://www.w3.org/2000/svg">
<path d="M12 21.25C11.81 21.25 11.62 21.18 11.47 21.03L5.4 14.96C5.11 14.67 5.11 14.19 5.4 13.9C5.69 13.61 6.17 13.61 6.46 13.9L12 19.44L17.54 13.9C17.83 13.61 18.31 13.61 18.6 13.9C18.89 14.19 18.89 14.67 18.6 14.96L12.53 21.03C12.38 21.18 12.19 21.25 12 21.25Z" fill="#222222"/>
<path fill-rule="evenodd" clip-rule="evenodd" d="M6.10644 14.2535C6.0117 14.1588 5.84829 14.1588 5.75355 14.2535C5.65881 14.3483 5.65881 14.5117 5.75355 14.6064L11.8235 20.6764C11.8748 20.7277 11.9354 20.75 12 20.75C12.0645 20.75 12.1252 20.7277 12.1764 20.6764L18.2464 14.6064C18.3412 14.5117 18.3412 14.3483 18.2464 14.2535C18.1517 14.1588 17.9883 14.1588 17.8935 14.2535L12 20.1471L6.10644 14.2535ZM5.04644 13.5464C5.5317 13.0612 6.32829 13.0612 6.81355 13.5464L12 18.7329L17.1864 13.5464C17.6717 13.0612 18.4683 13.0612 18.9535 13.5464C19.4388 14.0317 19.4388 14.8283 18.9535 15.3135L12.8835 21.3835C12.6348 21.6323 12.3154 21.75 12 21.75C11.6845 21.75 11.3652 21.6323 11.1164 21.3835L5.04644 15.3135C4.56118 14.8283 4.56118 14.0317 5.04644 13.5464Z" fill="#222222"/>
<path d="M12 21.08C11.59 21.08 11.25 20.74 11.25 20.33V3.5C11.25 3.09 11.59 2.75 12 2.75C12.41 2.75 12.75 3.09 12.75 3.5V20.33C12.75 20.74 12.41 21.08 12 21.08Z" fill="#222222"/>
<path fill-rule="evenodd" clip-rule="evenodd" d="M12 3.25C11.8661 3.25 11.75 3.36614 11.75 3.5V20.33C11.75 20.4639 11.8661 20.58 12 20.58C12.1339 20.58 12.25 20.4639 12.25 20.33V3.5C12.25 3.36614 12.1339 3.25 12 3.25ZM10.75 3.5C10.75 2.81386 11.3139 2.25 12 2.25C12.6861 2.25 13.25 2.81386 13.25 3.5V20.33C13.25 21.0161 12.6861 21.58 12 21.58C11.3139 21.58 10.75 21.0161 10.75 20.33V3.5Z" fill="#222222"/>
</svg>
