<svg width="24" height="24" viewBox="0 0 24 24" fill="none" xmlns="http://www.w3.org/2000/svg">
<path d="M9.57 18.82C9.38 18.82 9.19 18.75 9.04 18.6L2.97 12.53C2.68 12.24 2.68 11.76 2.97 11.47L9.04 5.4C9.33 5.11 9.81 5.11 10.1 5.4C10.39 5.69 10.39 6.17 10.1 6.46L4.56 12L10.1 17.54C10.39 17.83 10.39 18.31 10.1 18.6C9.96 18.75 9.76 18.82 9.57 18.82Z" fill="#222222"/>
<path fill-rule="evenodd" clip-rule="evenodd" d="M9.74645 5.75355C9.65171 5.65881 9.48829 5.65881 9.39356 5.75355L3.32356 11.8235C3.22882 11.9183 3.22882 12.0817 3.32356 12.1764L9.39356 18.2464C9.44485 18.2977 9.50545 18.32 9.57 18.32C9.64536 18.32 9.70423 18.2912 9.73448 18.2588L9.74036 18.2525L9.74645 18.2464C9.84119 18.1517 9.84119 17.9883 9.74645 17.8935L3.8529 12L9.74645 6.10644C9.84119 6.0117 9.84119 5.84829 9.74645 5.75355ZM8.68645 5.04644C9.17171 4.56118 9.96829 4.56118 10.4536 5.04644C10.9388 5.5317 10.9388 6.32829 10.4536 6.81355L5.26711 12L10.4536 17.1864C10.9368 17.6697 10.9388 18.4617 10.4595 18.9475C10.2103 19.2105 9.87221 19.32 9.57 19.32C9.25455 19.32 8.93516 19.2023 8.68645 18.9535L2.61645 12.8835C2.13119 12.3983 2.13119 11.6017 2.61645 11.1164L8.68645 5.04644Z" fill="#222222"/>
<path d="M20.5 12.75H3.66998C3.25998 12.75 2.91998 12.41 2.91998 12C2.91998 11.59 3.25998 11.25 3.66998 11.25H20.5C20.91 11.25 21.25 11.59 21.25 12C21.25 12.41 20.91 12.75 20.5 12.75Z" fill="#222222"/>
<path fill-rule="evenodd" clip-rule="evenodd" d="M3.66998 11.75C3.53613 11.75 3.41998 11.8661 3.41998 12C3.41998 12.1339 3.53613 12.25 3.66998 12.25H20.5C20.6338 12.25 20.75 12.1339 20.75 12C20.75 11.8661 20.6338 11.75 20.5 11.75H3.66998ZM2.41998 12C2.41998 11.3139 2.98384 10.75 3.66998 10.75H20.5C21.1861 10.75 21.75 11.3139 21.75 12C21.75 12.6861 21.1861 13.25 20.5 13.25H3.66998C2.98384 13.25 2.41998 12.6861 2.41998 12Z" fill="#222222"/>
</svg>
