<svg width="24" height="24" viewBox="0 0 24 24" fill="none" xmlns="http://www.w3.org/2000/svg">
<path d="M18.07 10.3199C17.88 10.3199 17.69 10.2499 17.54 10.0999L12 4.55994L6.46 10.0999C6.17 10.3899 5.69 10.3899 5.4 10.0999C5.11 9.80994 5.11 9.32994 5.4 9.03994L11.47 2.96994C11.76 2.67994 12.24 2.67994 12.53 2.96994L18.6 9.03994C18.89 9.32994 18.89 9.80994 18.6 10.0999C18.46 10.2499 18.26 10.3199 18.07 10.3199Z" fill="#222222"/>
<path fill-rule="evenodd" clip-rule="evenodd" d="M12.1764 3.32349C12.0817 3.22876 11.9183 3.22876 11.8235 3.32349L5.75355 9.39349C5.65881 9.48823 5.65881 9.65165 5.75355 9.74639C5.84829 9.84113 6.0117 9.84113 6.10644 9.74639L12 3.85283L17.8935 9.74639C17.9448 9.79768 18.0054 9.81994 18.07 9.81994C18.1454 9.81994 18.2042 9.79119 18.2345 9.75878L18.2403 9.75248L18.2464 9.74639C18.3412 9.65165 18.3412 9.48823 18.2464 9.39349L12.1764 3.32349ZM11.1164 2.61639C11.6017 2.13113 12.3983 2.13113 12.8835 2.61639L18.9535 8.68639C19.4368 9.16964 19.4388 9.96165 18.9595 10.4475C18.7103 10.7105 18.3722 10.8199 18.07 10.8199C17.7545 10.8199 17.4352 10.7022 17.1864 10.4535L12 5.26705L6.81355 10.4535C6.32829 10.9388 5.5317 10.9388 5.04644 10.4535C4.56118 9.96823 4.56118 9.17165 5.04644 8.68639L11.1164 2.61639Z" fill="#222222"/>
<path d="M12 21.25C11.59 21.25 11.25 20.91 11.25 20.5V3.67004C11.25 3.26004 11.59 2.92004 12 2.92004C12.41 2.92004 12.75 3.26004 12.75 3.67004V20.5C12.75 20.91 12.41 21.25 12 21.25Z" fill="#222222"/>
<path fill-rule="evenodd" clip-rule="evenodd" d="M12 3.42004C11.8661 3.42004 11.75 3.53619 11.75 3.67004V20.5C11.75 20.6339 11.8661 20.75 12 20.75C12.1339 20.75 12.25 20.6339 12.25 20.5V3.67004C12.25 3.53619 12.1339 3.42004 12 3.42004ZM10.75 3.67004C10.75 2.9839 11.3139 2.42004 12 2.42004C12.6861 2.42004 13.25 2.9839 13.25 3.67004V20.5C13.25 21.1862 12.6861 21.75 12 21.75C11.3139 21.75 10.75 21.1862 10.75 20.5V3.67004Z" fill="#222222"/>
</svg>
