<svg width="24" height="24" viewBox="0 0 24 24" fill="none" xmlns="http://www.w3.org/2000/svg">
<path d="M14.43 18.82C14.24 18.82 14.05 18.75 13.9 18.6C13.61 18.31 13.61 17.83 13.9 17.54L19.44 12L13.9 6.46C13.61 6.17 13.61 5.69 13.9 5.4C14.19 5.11 14.67 5.11 14.96 5.4L21.03 11.47C21.32 11.76 21.32 12.24 21.03 12.53L14.96 18.6C14.81 18.75 14.62 18.82 14.43 18.82Z" fill="#222222"/>
<path fill-rule="evenodd" clip-rule="evenodd" d="M14.6064 5.75355C14.5117 5.65881 14.3483 5.65881 14.2535 5.75355C14.1588 5.84829 14.1588 6.0117 14.2535 6.10644L20.1471 12L14.2535 17.8935C14.1588 17.9883 14.1588 18.1517 14.2535 18.2464C14.3048 18.2977 14.3654 18.32 14.43 18.32C14.4945 18.32 14.5552 18.2977 14.6064 18.2464L20.6764 12.1764C20.7712 12.0817 20.7712 11.9183 20.6764 11.8235L14.6064 5.75355ZM13.5464 5.04644C14.0317 4.56118 14.8283 4.56118 15.3135 5.04644L21.3835 11.1164C21.8688 11.6017 21.8688 12.3983 21.3835 12.8835L15.3135 18.9535C15.0648 19.2023 14.7454 19.32 14.43 19.32C14.1145 19.32 13.7952 19.2023 13.5464 18.9535C13.0612 18.4683 13.0612 17.6717 13.5464 17.1864L18.7329 12L13.5464 6.81355C13.0612 6.32829 13.0612 5.5317 13.5464 5.04644Z" fill="#222222"/>
<path d="M20.33 12.75H3.5C3.09 12.75 2.75 12.41 2.75 12C2.75 11.59 3.09 11.25 3.5 11.25H20.33C20.74 11.25 21.08 11.59 21.08 12C21.08 12.41 20.74 12.75 20.33 12.75Z" fill="#222222"/>
<path fill-rule="evenodd" clip-rule="evenodd" d="M3.5 11.75C3.36614 11.75 3.25 11.8661 3.25 12C3.25 12.1339 3.36614 12.25 3.5 12.25H20.33C20.4639 12.25 20.58 12.1339 20.58 12C20.58 11.8661 20.4639 11.75 20.33 11.75H3.5ZM2.25 12C2.25 11.3139 2.81386 10.75 3.5 10.75H20.33C21.0161 10.75 21.58 11.3139 21.58 12C21.58 12.6861 21.0161 13.25 20.33 13.25H3.5C2.81386 13.25 2.25 12.6861 2.25 12Z" fill="#222222"/>
</svg>
