<svg width="24" height="24" viewBox="0 0 24 24" fill="none" xmlns="http://www.w3.org/2000/svg">
<path d="M16.7729 8.28772L8.28765 16.773C7.99773 17.0629 7.5169 17.0629 7.22699 16.773C6.93707 16.4831 6.93707 16.0023 7.22699 15.7123L15.7123 7.22706C16.0022 6.93715 16.483 6.93715 16.7729 7.22706C17.0628 7.51698 17.0628 7.99781 16.7729 8.28772Z" fill="#222222"/>
<path fill-rule="evenodd" clip-rule="evenodd" d="M7.58061 16.0659C7.48596 16.1606 7.48596 16.3248 7.58061 16.4195C7.67527 16.5141 7.83952 16.5141 7.93417 16.4195L16.4194 7.93417C16.5141 7.83952 16.5141 7.67527 16.4194 7.58062C16.3248 7.48597 16.1605 7.48597 16.0659 7.58062L7.58061 16.0659ZM6.87351 17.1266C6.38833 16.6414 6.38833 15.844 6.87351 15.3588L15.3588 6.87351C15.844 6.38834 16.6414 6.38834 17.1266 6.87351C17.6117 7.35869 17.6117 8.1561 17.1266 8.64128L8.64127 17.1266C8.1561 17.6117 7.35868 17.6117 6.87351 17.1266Z" fill="#222222"/>
<path d="M16.7729 16.7729C16.483 17.0628 16.0022 17.0628 15.7123 16.7729L7.22699 8.28765C6.93707 7.99774 6.93707 7.51691 7.22699 7.22699C7.5169 6.93708 7.99773 6.93708 8.28765 7.22699L16.7729 15.7123C17.0628 16.0022 17.0628 16.483 16.7729 16.7729Z" fill="#222222"/>
<path fill-rule="evenodd" clip-rule="evenodd" d="M7.58061 7.58055C7.48596 7.6752 7.48596 7.83945 7.58061 7.9341L16.0659 16.4194C16.1605 16.514 16.3248 16.514 16.4194 16.4194C16.5141 16.3247 16.5141 16.1605 16.4194 16.0658L7.93417 7.58055C7.83952 7.4859 7.67527 7.4859 7.58061 7.58055ZM6.87351 8.64121C6.38833 8.15603 6.38833 7.35862 6.87351 6.87344C7.35868 6.38826 8.1561 6.38826 8.64127 6.87344L17.1266 15.3587C17.6117 15.8439 17.6117 16.6413 17.1266 17.1265C16.6414 17.6117 15.844 17.6117 15.3588 17.1265L6.87351 8.64121Z" fill="#222222"/>
</svg>
