<svg width="25" height="24" viewBox="0 0 25 24" fill="none" xmlns="http://www.w3.org/2000/svg">
<g clip-path="url(#clip0_57_13246)">
<path d="M0.673462 4C0.673462 1.79086 2.46432 0 4.67346 0H20.6735C22.8826 0 24.6735 1.79086 24.6735 4V20C24.6735 22.2091 22.8826 24 20.6735 24H4.67346C2.46432 24 0.673462 22.2091 0.673462 20V4Z" fill="#D8D8D8"/>
<rect x="0.673462" width="8" height="24" fill="#2D74FF"/>
<rect x="8.67346" width="8" height="24" fill="#FDFDFD"/>
<rect x="16.6735" width="8" height="24" fill="#FA4872"/>
</g>
<path d="M4.67346 1H20.6735V-1H4.67346V1ZM23.6735 4V20H25.6735V4H23.6735ZM20.6735 23H4.67346V25H20.6735V23ZM1.67346 20V4H-0.326538V20H1.67346ZM4.67346 23C3.01661 23 1.67346 21.6569 1.67346 20H-0.326538C-0.326538 22.7614 1.91204 25 4.67346 25V23ZM23.6735 20C23.6735 21.6569 22.3303 23 20.6735 23V25C23.4349 25 25.6735 22.7614 25.6735 20H23.6735ZM20.6735 1C22.3303 1 23.6735 2.34315 23.6735 4H25.6735C25.6735 1.23858 23.4349 -1 20.6735 -1V1ZM4.67346 -1C1.91204 -1 -0.326538 1.23858 -0.326538 4H1.67346C1.67346 2.34315 3.01661 1 4.67346 1V-1Z" fill="#F5F5F5"/>
<defs>
<clipPath id="clip0_57_13246">
<path d="M0.673462 4C0.673462 1.79086 2.46432 0 4.67346 0H20.6735C22.8826 0 24.6735 1.79086 24.6735 4V20C24.6735 22.2091 22.8826 24 20.6735 24H4.67346C2.46432 24 0.673462 22.2091 0.673462 20V4Z" fill="white"/>
</clipPath>
</defs>
</svg>
