<svg width="25" height="24" viewBox="0 0 25 24" fill="none" xmlns="http://www.w3.org/2000/svg">
<path d="M23.1745 12.2331C23.1745 11.3698 23.103 10.7398 22.9483 10.0864H12.8888V13.983H18.7935C18.6745 14.9514 18.0316 16.4097 16.603 17.3897L16.583 17.5202L19.7637 19.9349L19.984 19.9564C22.0078 18.1247 23.1745 15.4297 23.1745 12.2331Z" fill="#4285F4"/>
<path d="M12.8881 22.5001C15.7809 22.5001 18.2095 21.5667 19.9833 19.9567L16.6024 17.39C15.6976 18.0083 14.4833 18.44 12.8881 18.44C10.0548 18.44 7.65009 16.6083 6.79287 14.0767L6.66722 14.0871L3.35996 16.5955L3.31671 16.7133C5.07859 20.1433 8.69763 22.5001 12.8881 22.5001Z" fill="#34A853"/>
<path d="M6.7935 14.0767C6.56731 13.4234 6.43641 12.7233 6.43641 12C6.43641 11.2767 6.56731 10.5767 6.7816 9.92337L6.7756 9.78423L3.42689 7.2356L3.31733 7.28667C2.59117 8.71002 2.1745 10.3084 2.1745 12C2.1745 13.6917 2.59117 15.29 3.31733 16.7133L6.7935 14.0767Z" fill="#FBBC05"/>
<path d="M12.8882 5.55997C14.9001 5.55997 16.2572 6.41163 17.031 7.12335L20.0548 4.23C18.1977 2.53834 15.781 1.5 12.8882 1.5C8.69766 1.5 5.0786 3.85665 3.31671 7.28662L6.78099 9.92332C7.65012 7.39166 10.0549 5.55997 12.8882 5.55997Z" fill="#EB4335"/>
</svg>
