<svg width="24" height="24" viewBox="0 0 24 24" fill="none" xmlns="http://www.w3.org/2000/svg">
<path fill-rule="evenodd" clip-rule="evenodd" d="M18.5376 6.66215C18.5376 7.32497 18.0003 7.86215 17.3376 7.86215C16.6749 7.86215 16.1376 7.32497 16.1376 6.66215C16.1376 5.99934 16.6749 5.46215 17.3376 5.46215C18.0004 5.46215 18.5376 5.99934 18.5376 6.66215ZM11.9996 15.3334C10.1587 15.3334 8.66635 13.8411 8.66635 12.0001C8.66635 10.1592 10.1587 8.66684 11.9996 8.66684C13.8406 8.66684 15.3329 10.1592 15.3329 12.0001C15.3329 13.8411 13.8406 15.3334 11.9996 15.3334ZM11.9996 6.86497C9.16354 6.86497 6.86448 9.16403 6.86448 12.0001C6.86448 14.8362 9.16354 17.1353 11.9996 17.1353C14.8357 17.1353 17.1348 14.8362 17.1348 12.0001C17.1348 9.16403 14.8357 6.86497 11.9996 6.86497ZM11.9996 3.802C14.6698 3.802 14.986 3.81215 16.0404 3.86028C17.0154 3.90481 17.5449 4.06762 17.8973 4.20465C18.364 4.38606 18.6971 4.60278 19.0471 4.95278C19.3971 5.30262 19.6139 5.63575 19.7953 6.10262C19.9321 6.45497 20.0951 6.9845 20.1396 7.9595C20.1878 9.01403 20.1979 9.33028 20.1979 12.0004C20.1979 14.6706 20.1878 14.9868 20.1396 16.0412C20.0951 17.0162 19.9323 17.5457 19.7953 17.8981C19.6139 18.3648 19.3971 18.6979 19.0471 19.0479C18.6973 19.3979 18.3642 19.6147 17.8973 19.7961C17.5449 19.9329 17.0154 20.0959 16.0404 20.1404C14.986 20.1886 14.6698 20.1987 11.9996 20.1987C9.32932 20.1987 9.01307 20.1886 7.9587 20.1404C6.9837 20.0959 6.45416 19.9331 6.10182 19.7961C5.6351 19.6147 5.30198 19.3979 4.95198 19.0479C4.60213 18.6981 4.38526 18.365 4.20385 17.8981C4.06698 17.5457 3.90401 17.0162 3.85948 16.0412C3.81135 14.9867 3.8012 14.6704 3.8012 12.0004C3.8012 9.33028 3.81135 9.01403 3.85948 7.9595C3.90401 6.9845 4.06682 6.45497 4.20385 6.10262C4.38526 5.6359 4.60198 5.30278 4.95198 4.95278C5.30182 4.60278 5.63495 4.38606 6.10182 4.20465C6.45416 4.06778 6.9837 3.90481 7.9587 3.86028C9.01323 3.81215 9.32948 3.802 11.9996 3.802ZM11.9996 2.00012C9.28385 2.00012 8.94323 2.01168 7.87667 2.06028C6.81229 2.10887 6.08526 2.27793 5.44932 2.52512C4.79166 2.78059 4.23401 3.12262 3.67807 3.67856C3.12213 4.2345 2.7801 4.79215 2.52463 5.44981C2.27745 6.0859 2.10838 6.81278 2.05979 7.87715C2.0112 8.94372 1.99963 9.28434 1.99963 12.0001C1.99963 14.7159 2.0112 15.0565 2.05979 16.1231C2.10838 17.1875 2.27745 17.9143 2.52463 18.5504C2.7801 19.2081 3.12213 19.7657 3.67807 20.3217C4.23401 20.8776 4.79166 21.2195 5.44932 21.4751C6.08541 21.7223 6.81229 21.8914 7.87667 21.94C8.94323 21.9886 9.28385 22.0001 11.9996 22.0001C14.7154 22.0001 15.056 21.9886 16.1226 21.94C17.187 21.8914 17.9139 21.7223 18.5499 21.4751C19.2076 21.2195 19.7653 20.8776 20.3212 20.3217C20.8771 19.7657 21.219 19.2081 21.4746 18.5504C21.7218 17.9143 21.8909 17.1875 21.9395 16.1231C21.9881 15.0565 21.9996 14.7159 21.9996 12.0001C21.9996 9.28434 21.9881 8.94372 21.9395 7.87715C21.8909 6.81278 21.7218 6.0859 21.4746 5.44981C21.219 4.79215 20.8771 4.2345 20.3212 3.67856C19.7653 3.12262 19.2076 2.78075 18.5499 2.52512C17.9139 2.27793 17.187 2.10887 16.1226 2.06028C15.056 2.01168 14.7154 2.00012 11.9996 2.00012Z" fill="#222222"/>
</svg>
