<svg width="24" height="24" viewBox="0 0 24 24" fill="none" xmlns="http://www.w3.org/2000/svg">
<path d="M22.0625 5.93062C21.3247 6.25754 20.5321 6.47843 19.6989 6.57828C20.5489 6.06934 21.201 5.26175 21.5085 4.30042C20.7133 4.77225 19.8324 5.11507 18.8949 5.29886C18.1438 4.5001 17.0747 4 15.8907 4C13.6182 4 11.775 5.84314 11.775 8.11747C11.775 8.43909 11.8121 8.75188 11.881 9.05406C8.45895 8.88176 5.4274 7.24273 3.39694 4.75281C3.0435 5.36248 2.84028 6.06934 2.84028 6.82215C2.84028 8.25001 3.56747 9.51087 4.67105 10.2487C3.996 10.2266 3.36159 10.0419 2.80671 9.73353V9.78655C2.80671 11.7808 4.22485 13.4446 6.10863 13.8227C5.76227 13.9164 5.39912 13.9659 5.02448 13.9659C4.75941 13.9659 4.50052 13.9411 4.24959 13.8934C4.77355 15.528 6.2933 16.7191 8.09491 16.7509C6.68561 17.8554 4.9105 18.5136 2.98254 18.5136C2.65031 18.5136 2.32251 18.4942 2 18.4562C3.82194 19.6252 5.98493 20.3055 8.30874 20.3055C15.881 20.3055 20.0206 14.0339 20.0206 8.5946C20.0206 8.41789 20.0161 8.2394 20.0082 8.06269C20.8122 7.48129 21.5103 6.75764 22.0607 5.93327L22.0625 5.93062Z" fill="#222222"/>
</svg>
